<svg id="Capa_1" enable-background="new 0 0 512 512" height="512" viewBox="0 0 512 512" width="512" xmlns="http://www.w3.org/2000/svg" xmlns:xlink="http://www.w3.org/1999/xlink"><linearGradient id="SVGID_1_" gradientUnits="userSpaceOnUse" x1="256" x2="256" y1="430.009" y2="76"><stop offset="0" stop-color="#fd5900"/><stop offset="1" stop-color="#ffde00"/></linearGradient><linearGradient id="SVGID_2_" gradientUnits="userSpaceOnUse" x1="256" x2="256" y1="436" y2="406"><stop offset="0" stop-color="#ffe59a"/><stop offset="1" stop-color="#ffffd5"/></linearGradient><g><g><g><path d="m118.114 193.114c5.858-5.858 5.858-15.355 0-21.213l-21.214-21.213c-5.857-5.857-15.355-5.858-21.213 0s-5.858 15.355 0 21.213l21.214 21.213c5.859 5.859 15.357 5.858 21.213 0zm137.886-57.114c8.284 0 15-6.716 15-15v-30c0-8.284-6.716-15-15-15s-15 6.716-15 15v30c0 8.284 6.716 15 15 15zm-210 180h-31c-8.284 0-15 6.716-15 15s6.716 15 15 15h31c8.284 0 15-6.716 15-15s-6.716-15-15-15zm210-150c-90.981 0-165 74.019-165 165 0 36.035 11.41 70.271 32.996 99.009h264.008c21.586-28.738 32.996-62.974 32.996-99.009 0-90.981-74.019-165-165-165zm241 150h-31c-8.284 0-15 6.716-15 15s6.716 15 15 15h31c8.284 0 15-6.716 15-15s-6.716-15-15-15zm-81.9-165.312-21.214 21.213c-5.858 5.858-5.858 15.355 0 21.213 5.857 5.858 15.355 5.857 21.213 0l21.214-21.213c5.858-5.858 5.858-15.355 0-21.213-5.857-5.858-15.355-5.857-21.213 0z" fill="url(#SVGID_1_)"/></g></g><g><g><path d="m497 406h-482c-8.284 0-15 6.716-15 15s6.716 15 15 15h482c8.284 0 15-6.716 15-15s-6.716-15-15-15z" fill="url(#SVGID_2_)"/></g></g></g></svg>