<?xml version="1.0" encoding="utf-8"?>
<!-- Generator: Adobe Illustrator 25.1.0, SVG Export Plug-In . SVG Version: 6.00 Build 0)  -->
<svg version="1.1" id="Layer_1" xmlns="http://www.w3.org/2000/svg" xmlns:xlink="http://www.w3.org/1999/xlink" x="0px" y="0px"
	 viewBox="0 0 595.28 841.89" style="enable-background:new 0 0 595.28 841.89;" xml:space="preserve">
<style type="text/css">
	.st0{fill:#B6B1BE;}
	.st1{fill:#FBAA36;}
	.st2{fill:none;}
</style>
<path class="st0" d="M296.92,359.71c0,11.86,4.59,22.64,12.1,30.68H155.43c-1.78,0-3.47-0.41-4.99-1.16
	c-3.65-1.75-6.22-5.37-6.44-9.65c0.03-1.12,0.14-2.23,0.29-3.3c2.25-16.96,16.28-30.17,33.57-31.23
	c4.89-16.53,20.18-28.6,38.32-28.6c5.97,0,11.65,1.31,16.71,3.65c8.66-17.09,26.42-28.83,46.9-28.83c19.57,0,36.63,10.7,45.66,26.57
	C308.75,324.39,296.92,340.67,296.92,359.71z"/>
<path class="st0" d="M381.37,361.31c-0.02,0.74-0.08,1.45-0.14,2.17c-0.95,10.77-6.32,20.26-14.29,26.67
	c-0.74,0.17-1.52,0.24-2.32,0.24h-45.91c-8.12-6.41-13.61-16.02-14.57-26.91c-0.11-1.15-0.17-2.31-0.17-3.48
	c0-1.18,0.06-2.34,0.17-3.47c1.03-11.65,7.21-21.8,16.25-28.18c1.89-1.34,3.91-2.5,6.03-3.48c0.66-0.3,1.33-0.59,2.01-0.86
	c0.36,0.86,0.69,1.72,1,2.59c4.16-1.52,8.66-2.38,13.37-2.38C363.62,324.21,380.59,340.7,381.37,361.31z"/>
<path class="st1" d="M342.26,406.14c4.35,0,8.56-0.61,12.55-1.74L342.64,432l-12.06-27.36
	C334.31,405.62,338.22,406.14,342.26,406.14z"/>
<path class="st1" d="M342.26,314.43c-4.14,0-8.15,0.55-11.97,1.58l12.35-28.01l12.46,28.26
	C351.02,315.06,346.72,314.43,342.26,314.43z"/>
<path class="st1" d="M381.4,360c0,0.44-0.02,0.87-0.03,1.31c-0.02,0.74-0.08,1.45-0.14,2.17c-0.95,10.77-6.32,20.26-14.29,26.67
	c-0.63,0.53-1.28,1.03-1.96,1.49c-1.9,1.34-3.92,2.5-6.05,3.48c-4.93,2.29-10.45,3.58-16.25,3.58c-5.81,0-11.31-1.28-16.26-3.58
	c-2.13-0.98-4.15-2.14-6.03-3.48c-0.57-0.41-1.13-0.81-1.67-1.25c-8.12-6.41-13.61-16.02-14.57-26.91
	c-0.11-1.15-0.17-2.31-0.17-3.48c0-1.18,0.06-2.34,0.17-3.47c1.03-11.65,7.21-21.8,16.25-28.18c1.89-1.34,3.91-2.5,6.03-3.48
	c0.66-0.3,1.33-0.59,2.01-0.86c4.4-1.75,9.22-2.72,14.26-2.72c5.79,0,11.31,1.28,16.25,3.58c2.13,0.98,4.15,2.14,6.05,3.48
	c9.04,6.38,15.22,16.53,16.25,28.16C381.34,357.66,381.4,358.82,381.4,360z"/>
<path class="st1" d="M386.81,371.16L405,396l-30.3-3.29C380.53,386.86,384.8,379.45,386.81,371.16z"/>
<path class="st1" d="M386.71,348.98c-2.12-8.37-6.54-15.81-12.54-21.63l30.83-3.35L386.71,348.98z"/>
<path class="st2" d="M381.4,360c0,0.44-0.02,0.87-0.03,1.31c-0.02,0.74-0.08,1.45-0.14,2.17c-0.95,10.77-6.32,20.26-14.29,26.67
	c-0.63,0.53-1.28,1.03-1.96,1.49c-1.9,1.34-3.92,2.5-6.05,3.48c-4.93,2.29-10.45,3.58-16.25,3.58c-5.81,0-11.31-1.28-16.26-3.58
	c-2.13-0.98-4.15-2.14-6.03-3.48c-0.57-0.41-1.13-0.81-1.67-1.25c-8.12-6.41-13.61-16.02-14.57-26.91
	c-0.11-1.15-0.17-2.31-0.17-3.48c0-1.18,0.06-2.34,0.17-3.47c1.03-11.65,7.21-21.8,16.25-28.18c1.89-1.34,3.91-2.5,6.03-3.48
	c0.66-0.3,1.33-0.59,2.01-0.86c4.4-1.75,9.22-2.72,14.26-2.72c5.79,0,11.31,1.28,16.25,3.58c2.13,0.98,4.15,2.14,6.05,3.48
	c9.04,6.38,15.22,16.53,16.25,28.16C381.34,357.66,381.4,358.82,381.4,360z"/>
</svg>
